REM DIRINDEX 1\8,1\2\11,1\3\12,1\3\14,1\5\15,1\5\16,1\6\17,1\6\18,1\4\19,1\4\20,1\4\21,1\4\22,1\7\23,1\7\24,1\7\25,1\2\9\26,1\2\9\27,1\2\10\28,1\2\10\29,1\2\10\30,1\2\10\31,1\2\10\32,1\3\13\33,1\3\13\34,1\3\13\35
REM DIRNAME folder01,folder02,folder03,folder04,folder05,folder06,folder07,folder08,folder09,folder10,folder11,folder12,folder13,folder14,folder15,folder16,folder17,folder18,folder19,folder20,folder21,folder22,folder23,folder24,folder25,folder26,folder27,folder28,folder29,folder30,folder31,folder32,folder33,folder34,folder35
TITLE ""
FILE "84 084_UNIT2_SET3.mp3" MP3
  TRACK 01 AUDIO
    TITLE "14:cjc123_7595"
    INDEX 01 00:00:00
  TRACK 02 AUDIO
    TITLE "0:"
    INDEX 01 00:02:43
  TRACK 03 AUDIO
    TITLE "33:cjc123_7596"
    INDEX 01 00:03:15
  TRACK 04 AUDIO
    TITLE "0:"
    INDEX 01 00:04:23
  TRACK 05 AUDIO
    TITLE "34:cjc123_7597"
    INDEX 01 00:04:35
  TRACK 06 AUDIO
    TITLE "0:"
    INDEX 01 00:05:40
  TRACK 07 AUDIO
    TITLE "35:cjc123_7598"
    INDEX 01 00:06:18
  TRACK 08 AUDIO
    TITLE "0:"
    INDEX 01 00:10:29
  TRACK 09 AUDIO
    TITLE "33:cjc123_7599"
    INDEX 01 00:11:13
  TRACK 10 AUDIO
    TITLE "0:"
    INDEX 01 00:12:38
  TRACK 11 AUDIO
    TITLE "34:cjc123_7600"
    INDEX 01 00:12:56
  TRACK 12 AUDIO
    TITLE "0:"
    INDEX 01 00:14:07
  TRACK 13 AUDIO
    TITLE "35:cjc123_7601"
    INDEX 01 00:14:60
  TRACK 14 AUDIO
    TITLE "0:"
    INDEX 01 00:18:42
  TRACK 15 AUDIO
    TITLE "33:cjc123_7602"
    INDEX 01 00:19:34
  TRACK 16 AUDIO
    TITLE "0:"
    INDEX 01 00:20:53
  TRACK 17 AUDIO
    TITLE "34:cjc123_7603"
    INDEX 01 00:20:71
  TRACK 18 AUDIO
    TITLE "0:"
    INDEX 01 00:22:05
  TRACK 19 AUDIO
    TITLE "35:cjc123_7604"
    INDEX 01 00:22:52
  TRACK 20 AUDIO
    TITLE "0:"
    INDEX 01 00:27:39
  TRACK 21 AUDIO
    TITLE "33:cjc123_7605"
    INDEX 01 00:28:17
  TRACK 22 AUDIO
    TITLE "0:"
    INDEX 01 00:29:33
  TRACK 23 AUDIO
    TITLE "34:cjc123_7606"
    INDEX 01 00:29:50
  TRACK 24 AUDIO
    TITLE "0:"
    INDEX 01 00:30:61
  TRACK 25 AUDIO
    TITLE "35:cjc123_7607"
    INDEX 01 00:31:41
  TRACK 26 AUDIO
    TITLE "0:"
    INDEX 01 00:35:08
  TRACK 27 AUDIO
    TITLE "33:cjc123_7608"
    INDEX 01 00:35:61
  TRACK 28 AUDIO
    TITLE "0:"
    INDEX 01 00:37:05
  TRACK 29 AUDIO
    TITLE "34:cjc123_7609"
    INDEX 01 00:37:10
  TRACK 30 AUDIO
    TITLE "0:"
    INDEX 01 00:38:20
  TRACK 31 AUDIO
    TITLE "35:cjc123_7610"
    INDEX 01 00:38:67
  TRACK 32 AUDIO
    TITLE "0:"
    INDEX 01 00:42:72
  TRACK 33 AUDIO
    TITLE "33:cjc123_7611"
    INDEX 01 00:43:54
  TRACK 34 AUDIO
    TITLE "0:"
    INDEX 01 00:45:04
  TRACK 35 AUDIO
    TITLE "34:cjc123_7612"
    INDEX 01 00:45:30
  TRACK 36 AUDIO
    TITLE "0:"
    INDEX 01 00:46:49
  TRACK 37 AUDIO
    TITLE "35:cjc123_7613"
    INDEX 01 00:47:42
  TRACK 38 AUDIO
    TITLE "0:"
    INDEX 01 00:52:02
  TRACK 39 AUDIO
    TITLE "33:cjc123_7614"
    INDEX 01 00:52:71
  TRACK 40 AUDIO
    TITLE "0:"
    INDEX 01 00:53:68
  TRACK 41 AUDIO
    TITLE "34:cjc123_7615"
    INDEX 01 00:54:19
  TRACK 42 AUDIO
    TITLE "0:"
    INDEX 01 00:55:20
  TRACK 43 AUDIO
    TITLE "35:cjc123_7616"
    INDEX 01 00:55:65
  TRACK 44 AUDIO
    TITLE "0:"
    INDEX 01 00:59:43
  TRACK 45 AUDIO
    TITLE "33:cjc123_7617"
    INDEX 01 01:00:21
  TRACK 46 AUDIO
    TITLE "0:"
    INDEX 01 01:01:23
  TRACK 47 AUDIO
    TITLE "34:cjc123_7618"
    INDEX 01 01:01:36
  TRACK 48 AUDIO
    TITLE "0:"
    INDEX 01 01:02:54
  TRACK 49 AUDIO
    TITLE "35:cjc123_7619"
    INDEX 01 01:03:26
  TRACK 50 AUDIO
    TITLE "0:"
    INDEX 01 01:06:14
  TRACK 51 AUDIO
    TITLE "33:cjc123_7620"
    INDEX 01 01:06:65
  TRACK 52 AUDIO
    TITLE "0:"
    INDEX 01 01:07:59
  TRACK 53 AUDIO
    TITLE "34:cjc123_7621"
    INDEX 01 01:07:72
  TRACK 54 AUDIO
    TITLE "0:"
    INDEX 01 01:08:64
  TRACK 55 AUDIO
    TITLE "35:cjc123_7622"
    INDEX 01 01:09:38
  TRACK 56 AUDIO
    TITLE "0:"
    INDEX 01 01:13:10
  TRACK 57 AUDIO
    TITLE "33:cjc123_7623"
    INDEX 01 01:13:59
  TRACK 58 AUDIO
    TITLE "0:"
    INDEX 01 01:14:55
  TRACK 59 AUDIO
    TITLE "34:cjc123_7624"
    INDEX 01 01:15:03
  TRACK 60 AUDIO
    TITLE "0:"
    INDEX 01 01:16:01
  TRACK 61 AUDIO
    TITLE "35:cjc123_7625"
    INDEX 01 01:16:61
  TRACK 62 AUDIO
    TITLE "0:"
    INDEX 01 01:19:44
  TRACK 63 AUDIO
    TITLE "33:cjc123_7626"
    INDEX 01 01:20:20
  TRACK 64 AUDIO
    TITLE "0:"
    INDEX 01 01:21:31
  TRACK 65 AUDIO
    TITLE "34:cjc123_7627"
    INDEX 01 01:21:45
  TRACK 66 AUDIO
    TITLE "0:"
    INDEX 01 01:22:52
  TRACK 67 AUDIO
    TITLE "35:cjc123_7628"
    INDEX 01 01:23:24
  TRACK 68 AUDIO
    TITLE "0:"
    INDEX 01 01:27:06
  TRACK 69 AUDIO
    TITLE "33:cjc123_7629"
    INDEX 01 01:27:55
  TRACK 70 AUDIO
    TITLE "0:"
    INDEX 01 01:28:67
  TRACK 71 AUDIO
    TITLE "34:cjc123_7630"
    INDEX 01 01:29:25
  TRACK 72 AUDIO
    TITLE "0:"
    INDEX 01 01:30:18
  TRACK 73 AUDIO
    TITLE "35:cjc123_7631"
    INDEX 01 01:30:67
  TRACK 74 AUDIO
    TITLE "0:"
    INDEX 01 01:34:26
  TRACK 75 AUDIO
    TITLE "33:cjc123_7632"
    INDEX 01 01:35:02
  TRACK 76 AUDIO
    TITLE "0:"
    INDEX 01 01:36:11
  TRACK 77 AUDIO
    TITLE "0:"
    INDEX 01 01:36:29
  TRACK 78 AUDIO
    TITLE "0:"
    INDEX 01 01:37:32
  TRACK 79 AUDIO
    TITLE "34:cjc123_7633"
    INDEX 01 01:37:40
  TRACK 80 AUDIO
    TITLE "0:"
    INDEX 01 01:38:51
  TRACK 81 AUDIO
    TITLE "35:cjc123_7634"
    INDEX 01 01:39:25
  TRACK 82 AUDIO
    TITLE "0:"
    INDEX 01 01:43:31
  TRACK 83 AUDIO
    TITLE "33:cjc123_7635"
    INDEX 01 01:44:13
  TRACK 84 AUDIO
    TITLE "0:"
    INDEX 01 01:45:28
  TRACK 85 AUDIO
    TITLE "34:cjc123_7636"
    INDEX 01 01:45:53
  TRACK 86 AUDIO
    TITLE "0:"
    INDEX 01 01:47:07
  TRACK 87 AUDIO
    TITLE "35:cjc123_7637"
    INDEX 01 01:47:58
  TRACK 88 AUDIO
    TITLE "0:"
    INDEX 01 01:52:26
  TRACK 89 AUDIO
    TITLE "33:cjc123_7638"
    INDEX 01 01:53:00
  TRACK 90 AUDIO
    TITLE "0:"
    INDEX 01 01:53:74
  TRACK 91 AUDIO
    TITLE "34:cjc123_7639"
    INDEX 01 01:54:23
  TRACK 92 AUDIO
    TITLE "0:"
    INDEX 01 01:55:18
  TRACK 93 AUDIO
    TITLE "35:cjc123_7640"
    INDEX 01 01:55:63
  TRACK 94 AUDIO
    TITLE "0:"
    INDEX 01 01:59:20
